<svg width="100" height="100" viewBox="0 0 100 100" fill="none" xmlns="http://www.w3.org/2000/svg">
<path d="M50.0001 4.73291C40.7381 4.73291 33.2031 12.2679 33.2031 21.5299V53.7179C33.2031 62.9799 40.7381 70.5149 50.0001 70.5149C59.2621 70.5149 66.7971 62.9799 66.7971 53.7179V21.5299C66.7971 12.2679 59.2621 4.73291 50.0001 4.73291Z" fill="white"/>
<path d="M83.3401 53.7178C83.3401 51.5088 81.5492 49.7178 79.3402 49.7178C77.1312 49.7178 75.3402 51.5088 75.3402 53.7178C75.3402 67.6908 63.9732 79.0578 50.0002 79.0578C36.0272 79.0578 24.6602 67.6898 24.6602 53.7178C24.6602 51.5088 22.8692 49.7178 20.6602 49.7178C18.4512 49.7178 16.6602 51.5088 16.6602 53.7178C16.6602 70.7468 29.4962 84.8258 46.0002 86.8088V90.9998C46.0002 93.2088 47.7912 94.9998 50.0002 94.9998C52.2092 94.9998 54.0002 93.2088 54.0002 90.9998V86.8088C70.5042 84.8258 83.3401 70.7468 83.3401 53.7178Z" fill="white"/>
</svg>
